<svg width="637" height="465" viewBox="0 0 637 465" fill="none" xmlns="http://www.w3.org/2000/svg">
<path d="M535.635 128C516.429 128 495.089 126.578 471.615 123.733C448.852 120.178 420.399 114.844 386.255 107.733L341.441 320H497.223L480.151 398.933H324.369L237.941 800H84.2931L237.941 87.4667C188.859 89.6 153.293 108.444 131.241 144C109.901 179.556 99.2312 234.311 99.2312 308.267C99.2312 321.778 99.9425 333.511 101.365 343.467C103.499 353.422 106.7 363.022 110.968 372.267C112.391 375.111 113.102 377.244 113.102 378.667C113.814 379.378 114.169 380.089 114.169 380.8C74.3345 380.8 45.1697 372.622 26.675 356.267C8.89168 339.2 0 312.889 0 277.333C0 192.711 31.6544 125.511 94.9632 75.7334C158.983 25.2445 248.611 0 363.848 0C370.25 0 378.074 0.355572 387.322 1.06672C396.569 1.77782 411.863 3.20002 433.203 5.33333C461.656 8.17778 483.352 10.3111 498.29 11.7334C513.939 12.4445 528.166 12.8 540.97 12.8C560.176 12.8 577.604 11.7333 593.253 9.6C608.902 7.4667 623.485 4.2667 637 0C636.289 1.42225 633.088 12.4445 627.397 33.0667C621.706 53.6889 614.949 70.0444 607.124 82.1333C599.299 94.2223 589.341 104.178 577.248 112C565.867 119.111 551.996 124.444 535.635 128Z" fill="#FF5616"/>
</svg>
