<svg width="1600" height="538" viewBox="0 0 1600 538" fill="none" xmlns="http://www.w3.org/2000/svg">
<g clip-path="url(#clip0_216_1172)">
<path d="M702 73.7173C496.5 136.717 347.5 -49 0 265.717V604H1600V274.717L1571 224.949C1454 33.6722 1218.51 -84.6305 702 73.7173Z" fill="#1801AE"/>
<path d="M600.635 201.717C581.429 201.717 560.089 200.295 536.615 197.451C513.852 193.895 485.399 188.562 451.255 181.451L406.441 393.717H562.223L545.151 472.651H389.369L302.941 873.717H149.293L302.941 161.184C253.859 163.317 218.293 182.162 196.241 217.717C174.901 253.273 164.231 308.028 164.231 381.984C164.231 395.495 164.942 407.228 166.365 417.184C168.499 427.139 171.7 436.74 175.968 445.984C177.391 448.828 178.102 450.962 178.102 452.384C178.814 453.095 179.169 453.806 179.169 454.517C139.334 454.517 110.17 446.34 91.675 429.984C73.8917 412.917 65 386.606 65 351.051C65 266.428 96.6544 199.228 159.963 149.451C223.983 98.9617 313.611 73.7173 428.848 73.7173C435.25 73.7173 443.074 74.0729 452.322 74.784C461.569 75.4951 476.863 76.9173 498.203 79.0506C526.656 81.8951 548.352 84.0284 563.29 85.4507C578.939 86.1618 593.166 86.5173 605.97 86.5173C625.176 86.5173 642.604 85.4506 658.253 83.3173C673.902 81.184 688.485 77.984 702 73.7173C701.289 75.1395 698.088 86.1618 692.397 106.784C686.706 127.406 679.949 143.762 672.124 155.851C664.299 167.94 654.341 177.895 642.248 185.717C630.867 192.828 616.996 198.162 600.635 201.717Z" fill="#FF5616"/>
</g>
<defs>
<clipPath id="clip0_216_1172">
<rect width="1600" height="604" fill="white"/>
</clipPath>
</defs>
</svg>
