<svg width="360" height="361" viewBox="0 0 360 361" fill="none" xmlns="http://www.w3.org/2000/svg">
<g clip-path="url(#clip0_270_4222)">
<path d="M147.014 26.6633C72.6851 49.4502 18.7922 -17.7231 -106.897 96.109V425.018H471.818V99.3643L461.328 81.3633C419.01 12.1791 333.836 -30.6106 147.014 26.6633Z" fill="#1801AE"/>
<path d="M109.491 72.24C102.194 72.24 94.0871 71.7262 85.1692 70.6987C76.5215 69.4142 65.7119 67.4876 52.7404 64.9187L35.7152 141.6H94.8978L88.4121 170.115H29.2295L-3.6047 315H-61.9765L-3.6047 57.5973C-22.2513 58.368 -35.7633 65.1756 -44.1407 78.02C-52.2479 90.8645 -56.3015 110.645 -56.3015 137.361C-56.3015 142.242 -56.0313 146.481 -55.4908 150.077C-54.6801 153.674 -53.464 157.142 -51.8425 160.481C-51.3021 161.509 -51.0318 162.28 -51.0318 162.793C-50.7616 163.05 -50.6265 163.307 -50.6265 163.564C-65.7599 163.564 -76.8398 160.61 -83.866 154.701C-90.622 148.536 -94 139.031 -94 126.187C-94 95.6169 -81.9743 71.3409 -57.9229 53.3587C-33.6013 35.1196 0.448914 26 44.2278 26C46.66 26 49.6326 26.1285 53.1457 26.3854C56.6588 26.6422 62.469 27.156 70.5762 27.9267C81.3858 28.9542 89.6281 29.7249 95.3032 30.2387C101.248 30.4956 106.653 30.624 111.518 30.624C118.814 30.624 125.435 30.2387 131.38 29.468C137.326 28.6973 142.865 27.5413 148 26C147.73 26.5138 146.514 30.4956 144.352 37.9453C142.19 45.3951 139.623 51.3036 136.65 55.6707C133.677 60.0378 129.894 63.6342 125.3 66.46C120.976 69.0289 115.706 70.9556 109.491 72.24Z" fill="#FF5616"/>
</g>
<defs>
<clipPath id="clip0_270_4222">
<rect width="360" height="425" fill="white"/>
</clipPath>
</defs>
</svg>
